<svg xmlns="http://www.w3.org/2000/svg" width="60" height="106" fill="none" viewBox="0 0 60 106">
    <path fill="#fff" d="M58.392 3.157C57.108 1.467 55.24.37 53.134.077c-4.357-.605-8.4 2.425-9.007 6.753l-4.231 29.947L35.665 6.83C35.05 2.496 31.014-.528 26.65.077c-2.112.293-3.98 1.39-5.258 3.08-1.285 1.696-1.824 3.785-1.53 5.88l3.868 27.354c-1.003-.437-2.088-.686-3.21-.686-2.544 0-4.807 1.197-6.268 3.043-1.46-1.852-3.723-3.043-6.268-3.043C3.58 35.705 0 39.265 0 43.642v35.715c0 .4.12 9.609 10.254 16.767v8.174c0 .941.765 1.702 1.712 1.702h33.05c.947 0 1.712-.761 1.712-1.702V91.067l6.681-14.397c.107-.225.157-.468.157-.711V53.201c.144-.562.282-1.179.326-1.497l6.03-42.667c.295-2.101-.25-4.19-1.53-5.88zM24.12 5.202c.734-.966 1.8-1.596 3.009-1.764 2.494-.35 4.801 1.384 5.146 3.86l5.271 37.317-9.753-3.885-4.544-32.173c-.176-1.191.138-2.388.871-3.355zm-3.604 33.9c1.028 0 2.018.356 2.814.98-.03.031-.05.062-.081.1-.025.03-.05.056-.075.087-.038.05-.075.106-.107.162-.025.044-.05.094-.075.137-.013.025-.025.044-.038.075-.012.031-.012.056-.025.087-.018.056-.031.106-.05.162-.012.056-.025.119-.031.175-.007.031-.013.056-.013.081-.006.05 0 .1-.006.156-.313 4.826.67 8.742 2.244 11.878v10.862c0 2.5-2.043 4.532-4.557 4.532-2.513 0-4.557-2.032-4.557-4.532V43.642c0-2.5 2.044-4.54 4.557-4.54zm-17.099 4.54c0-2.5 2.043-4.533 4.557-4.533 2.513 0 4.563 2.033 4.563 4.533V64.05c0 2.5-2.043 4.533-4.557 4.533-2.513 0-4.557-2.033-4.557-4.533V43.642h-.006zM50.144 75.58l-6.682 14.397c-.106.224-.157.467-.157.71v11.903H13.678v-7.37c0-.567-.289-1.097-.759-1.415-9.301-6.173-9.49-14.129-9.496-14.46v-8.803c1.292.898 2.865 1.434 4.557 1.434 2.545 0 4.808-1.197 6.268-3.043 1.46 1.852 3.723 3.043 6.268 3.043 4.4 0 7.98-3.56 7.98-7.938v-5.91c2.25 2.475 4.669 4.083 6.23 4.956-3.749 7.888-1.699 15.264-1.605 15.594.213.749.896 1.235 1.642 1.235.157 0 .314-.019.47-.062.91-.256 1.436-1.197 1.172-2.101-.018-.075-2.03-7.333 2.119-14.56l.972-1.696-1.824-.723c-.483-.193-11.107-4.577-11.47-16.997l23.943 9.521V75.58zM56.53 8.563l-5.836 41.29-8.712-3.467 5.522-39.082c.351-2.476 2.658-4.21 5.146-3.86 1.203.168 2.275.792 3.009 1.765.733.96 1.046 2.157.87 3.354z"/>
</svg>
